# AST/ASF file generated using VICON BodyLanguage
# -----------------------------------------------
:version 1.10
:name VICON
:units
  mass 1.0
  length 0.45
  angle deg
:documentation
   .ast/.asf automatically generated from VICON data using
   VICON BodyBuilder and BodyLanguage model FoxedUp or BRILLIANT.MOD
:root
   order TX TY TZ RX RY RZ
   axis XYZ
   position 0 0 0  
   orientation 0 0 0 
:bonedata
  begin
     id 1 
     name lhipjoint
     direction 0.682418 -0.694059 0.22932 
     length 2.25561 
     axis 0 0 0  XYZ
  end
  begin
     id 2 
     name lfemur
     direction 0.34202 -0.939693 0  
     length 6.96448  
     axis 0 0 20  XYZ
    dof rx ry rz
    limits (-160.0 20.0)
           (-70.0 70.0)
           (-60.0 70.0)
  end
  begin
     id 3 
     name ltibia
     direction 0.34202 -0.939693 0   
     length 6.88553   
     axis 0 0 20   XYZ
    dof rx
    limits (-10.0 170.0)
  end
  begin
     id 4 
     name lfoot
     direction 0.0723587 -0.198804 0.977364   
     length 1.88518   
     axis -90 7.62852e-016 20   XYZ
    dof rx rz
    limits (-45.0 90.0)
           (-70.0 20.0)
  end
  begin
     id 5 
     name ltoes
     direction 1.53558e-011 -4.21962e-011 1   
     length 0.952124   
     axis -90 7.62852e-016 20   XYZ
    dof rx
    limits (-90.0 20.0)
  end
  begin
     id 6 
     name rhipjoint
     direction -0.657603 -0.71533 0.236348   
     length 2.18854  
     axis 0 0 0  XYZ 
  end
  begin
     id 7 
     name rfemur
     direction -0.34202 -0.939693 0   
     length 6.86686   
     axis 0 0 -20   XYZ
    dof rx ry rz
    limits (-160.0 20.0)
           (-70.0 70.0)
           (-70.0 60.0)
  end
  begin
     id 8 
     name rtibia
     direction -0.34202 -0.939693 0   
     length 6.59503   
     axis 0 0 -20   XYZ
    dof rx
    limits (-10.0 170.0)
 end
 begin
     id 9 
     name rfoot
     direction -0.101977 -0.280179 0.954516   
     length 1.93723  
     axis -90 -7.62852e-016 -20   XYZ
    dof rx rz
    limits (-45.0 90.0)
           (-20.0 70.0)
  end
  begin
     id 10 
     name rtoes
     direction -1.53564e-011 -4.21897e-011 1   
     length 0.970315   
     axis -90 -7.62852e-016 -20   XYZ
    dof rx
    limits (-90.0 20.0)
  end
  begin
     id 11 
     name lowerback
     direction -0.0339559 0.999421 -0.00235966   
     length 1.88543   
     axis 0 0 0   XYZ
    dof rx ry rz
    limits (-20.0 45.0)
           (-30.0 30.0)
           (-30.0 30.0)
  end
  begin
     id 12 
     name upperback
     direction 0.00401003 0.999739 0.0224689   
     length 1.8856   
     axis 0 0 0   XYZ
    dof rx ry rz
    limits (-20.0 45.0)
           (-30.0 30.0)
           (-30.0 30.0)
  end
  begin
     id 13 
     name thorax
     direction 0.0198619 0.999546 0.0226536   
     length 1.88352   
     axis 0 0 0   XYZ
    dof rx ry rz
    limits (-20.0 45.0)
           (-30.0 30.0)
           (-30.0 30.0)
  end
  begin
     id 14 
     name lowerneck
     direction -0.0461848 0.998632 0.0245198   
     length 1.34895   
     axis 0 0 0   XYZ
    dof rx ry rz
    limits (-20.0 45.0)
           (-30.0 30.0)
           (-30.0 30.0)
  end
  begin
     id 15 
     name upperneck
     direction -0.0180627 0.994724 -0.100984   
     length 1.35214   
     axis 0 0 0   XYZ
    dof rx ry rz
    limits (-20.0 45.0)
           (-30.0 30.0)
           (-30.0 30.0)
  end
  begin
     id 16
     name head
     direction -0.00374772 0.999293 -0.037403  
     length 1.3568  
     axis 0 0 0   XYZ
    dof rx ry rz
    limits (-20.0 45.0)
           (-30.0 30.0)
           (-30.0 30.0)
  end
  begin
     id 17 
     name lclavicle
     direction 0.971773 0.191119 0.138311  
     length 2.84954  
     axis 0 0 0   XYZ
    dof ry rz
    limits (-20.0 10.0)
           (0.0 20.0)
  end
  begin
     id 18 
     name lhumerus
     direction 1 -4.4897e-011 -2.43761e-027   
     length 4.40919   
     axis 180 -30 -90   XYZ
    dof rx ry rz
    limits (-60.0 90.0)
           (-90.0 90.0)
           (-90.0 90.0)
  end
  begin
     id 19
     name lradius
     direction 1 -4.4896e-011 -9.1621e-027   
     length 3.03857   
     axis 180 -30 -90   XYZ
    dof rx
    limits (-10.0 170.0)
  end
  begin
     id 20
     name lwrist
     direction 1 -4.4896e-011 -1.41363e-026   
     length 1.51928   
     axis 1.07133e-014 90 90   XYZ
    dof ry
    limits (-180.0 0.0)
 end
  begin
     id 21 
     name lhand
     direction 1 -4.48978e-011 -2.82725e-026   
     length 0.523208   
     axis 1.80403e-014 90 90   XYZ
    dof rx rz
    limits (-90.0 90.0)
           (-45.0 45.0)
  end
  begin
     id 22 
     name lfingers
     direction 1 -4.48977e-011 -5.6545e-026   
     length 0.421824   
     axis 3.60806e-014 90 90   XYZ
    dof rx
    limits (0.0 90.0)
  end
  begin
     id 23
     name lthumb
     direction 0.707107 -6.34962e-011 0.707107   
     length 0.605657   
     axis -90 45 2.85299e-015   XYZ
    dof rx rz
    limits (-45.0 45.0)
           (-45.0 45.0)
  end
  begin
     id 24 
     name rclavicle
     direction -0.957247 0.24311 0.156766   
     length 3.12406  
     axis 0 0 0   XYZ 
    dof ry rz
    limits (-10.0 20.0)
           (-20.0 0.0)
  end
  begin
     id 25 
     name rhumerus
     direction -1 -4.48964e-011 -1.70632e-027  
     length 4.61969   
     axis 180 30 90   XYZ
    dof rx ry rz
    limits (-90.0 60.0)
           (-90.0 90.0)
           (-90.0 90.0)
  end
  begin
     id 26 
     name rradius
     direction -1 -4.48966e-011 -6.60395e-027   
     length 3.09382   
     axis 180 30 90   XYZ
    dof rx
    limits (-10.0 170.0)
  end
  begin
     id 27 
     name rwrist
     direction -1 -4.48963e-011 -1.41363e-026   
     length 1.54691   
     axis 1.07133e-014 -90 -90   XYZ
    dof ry
    limits (-180.0 0.0)
  end
  begin
     id 28
     name rhand
     direction -1 -4.49013e-011 -2.82725e-026   
     length 0.500896   
     axis 1.80403e-014 -90 -90   XYZ
    dof rx rz
    limits (-90.0 90.0)
           (-45.0 45.0)
  end
  begin
     id 29
     name rfingers
     direction -1 -4.48902e-011 -5.6545e-026   
     length 0.403835   
     axis 3.60806e-014 -90 -90   XYZ
    dof rx
    limits (0.0 90.0)
  end
  begin
     id 30
     name rthumb
     direction -0.707107 -6.34953e-011 0.707107   
     length 0.579829   
     axis -90 -45 -2.85299e-015   XYZ
    dof rx rz
    limits (-45.0 45.0)
           (-45.0 45.0)
  end
:hierarchy
  begin
    root lhipjoint rhipjoint lowerback
    lhipjoint lfemur
    lfemur ltibia
    ltibia lfoot
    lfoot ltoes
    rhipjoint rfemur
    rfemur rtibia
    rtibia rfoot
    rfoot rtoes
    lowerback upperback
    upperback thorax
    thorax lowerneck lclavicle rclavicle
    lowerneck upperneck
    upperneck head
    lclavicle lhumerus
    lhumerus lradius
    lradius lwrist
    lwrist lhand lthumb
    lhand lfingers
    rclavicle rhumerus
    rhumerus rradius
    rradius rwrist
    rwrist rhand rthumb
    rhand rfingers
  end

#!OML:ASF E:\madness\Project 1\Capture day 1\Session 1\Female1.ASF
:FULLY-SPECIFIED
:DEGREES
271
root 7.751 15.7044 2.43967 151.399 -82.8378 -147.436
lowerback 18.5223 -1.03823 0.61637
upperback 5.58502 -1.46603 9.04447
thorax -4.09172 -1.0713 9.85589
lowerneck -0.877739 -4.55904 -3.80835
upperneck 15.9221 -5.90245 -4.14855
head 4.92341 -3.52387 -0.938185
rclavicle -2.54444e-014 -1.11319e-014
rhumerus 52.4439 -41.6777 -56.9073
rradius 132.762
rwrist -24.5815
rhand -28.7536 -43.8746
rfingers 7.12502
rthumb -2.1137 -73.8439
lclavicle -2.54444e-014 -1.11319e-014
lhumerus 47.37 17.8404 61.5101
lradius 147.982
lwrist -11.323
lhand -50.0274 -51.5258
lfingers 7.12502
lthumb -22.6154 -22.8306
rfemur -53.9296 13.1602 -16.8463
rtibia 92.8185
rfoot 18.8716 -3.44812
rtoes -1.92546
lfemur -26.4357 0.280765 -23.4791
ltibia 44.9431
lfoot -13.496 19.2444
ltoes 14.7221
272
root 7.81544 15.7194 2.43373 154.674 -82.2323 -150.485
lowerback 19.0702 -0.952605 0.443601
upperback 5.84889 -1.4 8.70734
thorax -4.11243 -1.04516 9.57989
lowerneck -1.38417 -4.36926 -3.41039
upperneck 15.5245 -5.61858 -4.08658
head 4.87406 -3.34055 -0.974606
rclavicle 1.03368e-014 -5.40694e-014
rhumerus 49.7917 -41.3727 -57.1322
rradius 133.252
rwrist -25.932
rhand -28.9773 -43.9094
rfingers 7.12502
rthumb -2.32978 -73.8764
lclavicle 1.03368e-014 -5.40694e-014
lhumerus 45.9624 15.6917 63.709
lradius 145.007
lwrist -13.6246
lhand -50.6478 -59.9324
lfingers 7.12502
lthumb -23.2107 -31.311
rfemur -54.6836 13.0612 -17.0991
rtibia 93.0061
rfoot 19.0149 -2.75544
rtoes -2.28546
lfemur -26.7512 0.12218 -23.403
ltibia 44.7081
lfoot -12.9405 19.7893
ltoes 13.9725
273
root 7.88915 15.7273 2.42442 156.36 -81.5462 -151.697
lowerback 19.616 -0.848858 0.57593
upperback 5.93554 -1.23029 8.37574
thorax -4.34497 -0.953379 9.11268
lowerneck -1.23057 -4.182 -3.26496
upperneck 14.3631 -5.43405 -3.56486
head 5.00727 -3.16809 -0.912716
rclavicle 4.85035e-014 -4.6118e-014
rhumerus 46.8758 -39.9077 -56.6535
rradius 133.077
rwrist -26.0506
rhand -29.4408 -43.7395
rfingers 7.12502
rthumb -2.77739 -73.7012
lclavicle 4.85035e-014 -4.6118e-014
lhumerus 44.6536 13.6476 65.566
lradius 142.714
lwrist -15.6613
lhand -51.7607 -67.424
lfingers 7.12502
lthumb -24.2781 -38.9413
rfemur -55.702 12.8766 -17.1183
rtibia 93.1225
rfoot 19.0794 -2.29704
rtoes -2.27078
lfemur -27.4719 -0.023987 -23.0525
ltibia 44.6549
lfoot -12.6172 20.1875
ltoes 14.1836
274
root 7.95473 15.7399 2.40936 157.102 -80.8039 -151.944
lowerback 19.876 -0.651851 0.874959
upperback 6.09765 -0.931022 8.09673
thorax -4.36221 -0.807856 8.55547
lowerneck -1.01861 -4.06827 -3.01731
upperneck 13.6126 -5.30507 -3.36639
head 4.68124 -3.05463 -0.852175
rclavicle -2.14687e-014 -2.8625e-014
rhumerus 43.327 -38.9693 -55.4635
rradius 133.015
rwrist -25.704
rhand -30.4755 -43.8717
rfingers 7.12502
rthumb -3.7766 -73.818
lclavicle -2.14687e-014 -2.8625e-014
lhumerus 43.607 11.6559 67.0401
lradius 141.3
lwrist -17.3544
lhand -52.8167 -71.7116
lfingers 7.12502
lthumb -25.2901 -43.3681
rfemur -56.6375 12.8798 -16.8771
rtibia 93.0937
rfoot 19.2026 -1.88159
rtoes -3.10986
lfemur -28.2402 -0.131072 -22.5127
ltibia 44.6623
lfoot -12.4077 20.4335
ltoes 14.7811
275
root 8.04313 15.733 2.3801 158.345 -80.5645 -151.848
lowerback 19.5254 -0.550522 0.825365
upperback 6.01509 -0.802031 7.89399
thorax -4.29154 -0.730004 8.30803
lowerneck -1.40247 -4.0043 -2.67925
upperneck 13.0499 -5.19731 -3.31868
head 4.54053 -2.96113 -0.884412
rclavicle -1.03368e-014 8.5875e-014
rhumerus 39.724 -37.8837 -54.1884
rradius 133.063
rwrist -24.961
rhand -31.2384 -44.2662
rfingers 7.12502
rthumb -4.51333 -74.1981
lclavicle -1.03368e-014 8.5875e-014
lhumerus 42.5726 10.1315 67.7535
lradius 140.928
lwrist -18.3413
lhand -53.61 -75.1104
lfingers 7.12502
lthumb -26.05 -46.8765
rfemur -58.2004 11.892 -16.8431
rtibia 93.1032
rfoot 19.4234 -1.24596
rtoes -4.08069
lfemur -30.1095 -0.472255 -22.0728
ltibia 44.7166
lfoot -11.5747 20.5215
ltoes 14.6454
276
root 8.10725 15.7433 2.35956 159.766 -80.0479 -152.764
lowerback 19.8815 -0.399225 0.745402
upperback 6.18428 -0.630978 7.58942
thorax -4.32264 -0.646963 7.98283
lowerneck -1.99862 -3.88828 -2.4218
upperneck 12.717 -5.03532 -3.02768
head 4.5381 -2.83998 -0.831856
rclavicle -1.11319e-014 8.11041e-014
rhumerus 36.2535 -36.3662 -53.0399
rradius 133.005
rwrist -24.1514
rhand -31.2492 -44.8126
rfingers 7.12502
rthumb -4.52379 -74.7443
lclavicle -1.11319e-014 8.11041e-014
lhumerus 41.7597 9.1788 67.6041
lradius 141.193
lwrist -18.4312
lhand -53.9687 -76.1444
lfingers 7.12502
lthumb -26.3933 -47.9615
rfemur -58.8241 11.826 -16.6763
rtibia 92.8334
rfoot 19.3292 -0.778475
rtoes -4.62827
lfemur -30.8588 -0.63281 -21.7307
ltibia 44.7086
lfoot -10.8727 20.8974
ltoes 13.5025
277
root 8.15405 15.7691 2.34064 160.096 -79.3121 -153.173
lowerback 20.6166 -0.228021 0.779732
upperback 6.46479 -0.424013 7.24567
thorax -4.43249 -0.554983 7.5512
lowerneck -2.14216 -3.7143 -2.02966
upperneck 12.2094 -4.82439 -2.78041
head 4.37656 -2.68924 -0.79772
rclavicle 2.22639e-014 7.95139e-016
rhumerus 32.5669 -34.7143 -51.8014
rradius 133.009
rwrist -23.5737
rhand -31.7778 -44.9891
rfingers 7.12502
rthumb -5.03423 -74.9093
lclavicle 2.22639e-014 7.95139e-016
lhumerus 41.1935 8.4369 66.7964
lradius 141.637
lwrist -18.2538
lhand -53.6938 -74.7903
lfingers 7.12502
lthumb -26.1302 -46.5682
rfemur -58.7353 12.5107 -16.1485
rtibia 92.3372
rfoot 19.2377 -0.356334
rtoes -5.16314
lfemur -30.8255 -0.577361 -21.2372
ltibia 44.6911
lfoot -10.8871 21.1111
ltoes 12.2668
278
root 8.2056 15.7846 2.31172 159.602 -78.5316 -152.503
lowerback 21.1174 -0.108649 0.819788
upperback 6.65354 -0.280366 6.98062
thorax -4.50699 -0.491559 7.21069
lowerneck -2.11559 -3.48086 -1.67679
upperneck 11.5704 -4.53155 -2.60652
head 4.13563 -2.50405 -0.77164
rclavicle 9.54166e-015 -3.02153e-014
rhumerus 29.0314 -32.7515 -50.8974
rradius 133.227
rwrist -23.2937
rhand -32.7202 -44.6806
rfingers 7.12502
rthumb -5.94412 -74.5772
lclavicle 9.54166e-015 -3.02153e-014
lhumerus 40.5234 7.82816 65.5058
lradius 142.209
lwrist -18.3899
lhand -53.1006 -73.8701
lfingers 7.12502
lthumb -25.5621 -45.5653
rfemur -58.8974 13.1227 -15.373
rtibia 91.795
rfoot 19.2571 0.167388
rtoes -5.90675
lfemur -31.071 -0.302514 -20.4902
ltibia 44.6376
lfoot -10.771 21.1085
ltoes 11.3665
279
root 8.26195 15.7904 2.27645 160.2 -77.8781 -152.536
lowerback 21.3109 0.0054287 0.552105
upperback 6.74524 -0.197151 6.75403
thorax -4.51864 -0.451224 7.098
lowerneck -2.4611 -3.20172 -1.55467
upperneck 11.2668 -4.15674 -2.4188
head 4.09792 -2.29653 -0.71624
rclavicle 1.98785e-015 -6.52014e-014
rhumerus 25.8534 -30.5337 -50.2234
rradius 133.444
rwrist -23.3501
rhand -33.0882 -44.6863
rfingers 7.12502
rthumb -6.29936 -74.5726
lclavicle 1.98785e-015 -6.52014e-014
lhumerus 39.608 7.33161 63.8803
lradius 143.081
lwrist -18.85
lhand -53.2181 -72.1967
lfingers 7.12502
lthumb -25.6747 -43.9081
rfemur -59.4106 13.4176 -14.8934
rtibia 91.2674
rfoot 19.1958 0.757012
rtoes -6.56456
lfemur -31.8037 -0.0104589 -19.9295
ltibia 44.6311
lfoot -10.5057 21.1199
ltoes 10.5336
280
root 8.31884 15.7969 2.24226 162.186 -77.7353 -153.687
lowerback 21.2462 0.0927065 0.0439219
upperback 6.71051 -0.17948 6.44116
thorax -4.52765 -0.428987 7.0392
lowerneck -2.86309 -2.96625 -1.02298
upperneck 11.0073 -3.82397 -2.69031
head 4.06842 -2.11579 -0.888183
rclavicle 3.33958e-014 7.55382e-014
rhumerus 22.4151 -28.5334 -49.1273
rradius 133.655
rwrist -23.5589
rhand -32.9756 -44.7227
rfingers 7.12502
rthumb -6.19065 -74.6123
lclavicle 3.33958e-014 7.55382e-014
lhumerus 38.4755 6.84935 62.1641
lradius 144.484
lwrist -18.9797
lhand -53.7539 -70.791
lfingers 7.12502
lthumb -26.1877 -42.5775
rfemur -59.8039 13.1877 -14.9062
rtibia 90.6989
rfoot 19.0766 1.5052
rtoes -6.38179
lfemur -32.8818 -0.129215 -19.8362
ltibia 44.6551
lfoot -10.2706 21.0926
ltoes 10.5913
281
root 8.36952 15.8022 2.20793 161.694 -77.6214 -152.481
lowerback 21.1681 0.101167 0.13344
upperback 6.69905 -0.151637 6.21067
thorax -4.50581 -0.407507 6.71944
lowerneck -2.94795 -2.82197 -0.554358
upperneck 10.5235 -3.63648 -2.80524
head 3.90268 -1.9987 -0.991311
rclavicle 0 -3.4191e-014
rhumerus 18.9783 -26.6401 -48.0525
rradius 133.921
rwrist -23.6694
rhand -32.2956 -44.3227
rfingers 7.12502
rthumb -5.53413 -74.2305
lclavicle 0 -3.4191e-014
lhumerus 37.2422 6.11426 60.5585
lradius 145.565
lwrist -19.2182
lhand -54.6775 -71.7474
lfingers 7.12502
lthumb -27.0716 -43.6681
rfemur -59.8426 13.1656 -14.2618
rtibia 90.0917
rfoot 18.8739 2.09751
rtoes -6.55873
lfemur -33.837 -0.307271 -19.1996
ltibia 44.7449
lfoot -9.97771 20.9964
ltoes 11.4859
282
root 8.42126 15.8014 2.16608 161.546 -77.5379 -151.733
lowerback 21.2451 0.12514 0.017513
upperback 6.62882 -0.132658 6.01395
thorax -4.62555 -0.386663 6.56788
lowerneck -2.94427 -2.63943 -0.433471
upperneck 10.1213 -3.40205 -2.68982
head 3.76227 -1.86486 -0.956031
rclavicle 1.51076e-014 -4.13472e-014
rhumerus 15.7725 -24.5452 -47.0207
rradius 134.09
rwrist -23.5237
rhand -31.6023 -43.8793
rfingers 7.12502
rthumb -4.86471 -73.8034
lclavicle 1.51076e-014 -4.13472e-014
lhumerus 36.3399 4.60337 59.0097
lradius 145.406
lwrist -20.3665
lhand -55.2997 -66.0374
lfingers 7.12502
lthumb -27.6668 -38.0522
rfemur -59.7687 13.2347 -13.669
rtibia 89.5155
rfoot 18.3973 2.68616
rtoes -8.60365
lfemur -34.6876 -0.442902 -18.6463
ltibia 44.8763
lfoot -10.0769 20.8574
ltoes 12.5699
